<svg xmlns="http://www.w3.org/2000/svg" version="1.1" xmlns:xlink="http://www.w3.org/1999/xlink" xmlns:svgjs="http://svgjs.dev/svgjs" width="2000" height="520" viewBox="0 0 2000 520"><g transform="matrix(1,0,0,1,-1.2121212121212466,0.6112547717020789)"><svg viewBox="0 0 396 103" data-background-color="#ffffff" preserveAspectRatio="xMidYMid meet" height="520" width="2000" xmlns="http://www.w3.org/2000/svg" xmlns:xlink="http://www.w3.org/1999/xlink"><g id="tight-bounds" transform="matrix(1,0,0,1,0.2400000000000091,-0.12107546439483485)"><svg viewBox="0 0 395.52 103.24215092878964" height="103.24215092878964" width="395.52"><g><svg viewBox="0 0 530.6023128513907 138.5025385987261" height="103.24215092878964" width="395.52"><g transform="matrix(1,0,0,1,135.0823128513907,27.26400815286624)"><svg viewBox="0 0 395.52 83.97452229299361" height="83.97452229299361" width="395.52"><g id="textblocktransform"><svg viewBox="0 0 395.52 83.97452229299361" height="83.97452229299361" width="395.52" id="textblock"><g><svg viewBox="0 0 395.52 83.97452229299361" height="83.97452229299361" width="395.52"><g transform="matrix(1,0,0,1,0,0)"><svg width="395.52" viewBox="4 -35 164.84 35" height="83.97452229299361" data-palette-color="url(#4c05dc27-fdd8-4746-971b-c03ec357a6a6)"></svg></g></svg></g></svg></g></svg></g><g><svg viewBox="0 0 115.25794352654994 138.5025385987261" height="138.5025385987261" width="115.25794352654994"><g><svg xmlns="http://www.w3.org/2000/svg" xmlns:xlink="http://www.w3.org/1999/xlink" version="1.1" x="0" y="0" viewBox="13.05 5.598000000000005 73.9 88.80375" enable-background="new 0 0 100 100" xml:space="preserve" height="138.5025385987261" width="115.25794352654994" class="icon-icon-0" data-fill-palette-color="accent" id="icon-0"></svg></g></svg></g></svg></g><defs></defs><mask id="a0c390bd-36b0-41a6-b3b7-e71065a5d666"><g id="SvgjsG1071"><svg viewBox="0 0 395.52 103.24215092878964" height="103.24215092878964" width="395.52"><g><svg viewBox="0 0 530.6023128513907 138.5025385987261" height="103.24215092878964" width="395.52"><g transform="matrix(1,0,0,1,135.0823128513907,27.26400815286624)"><svg viewBox="0 0 395.52 83.97452229299361" height="83.97452229299361" width="395.52"><g id="SvgjsG1070"><svg viewBox="0 0 395.52 83.97452229299361" height="83.97452229299361" width="395.52" id="SvgjsSvg1069"><g><svg viewBox="0 0 395.52 83.97452229299361" height="83.97452229299361" width="395.52"><g transform="matrix(1,0,0,1,0,0)"><svg width="395.52" viewBox="4 -35 164.84 35" height="83.97452229299361" data-palette-color="url(#4c05dc27-fdd8-4746-971b-c03ec357a6a6)"><path d="M24.55-15.3L28.8-10.7 28.8 0 25 0 25-9.65 20.2-14.7 7.8-14.7 7.8 0 4 0 4-35 24-35 28.6-30.4 28.6-19.35 24.55-15.3ZM7.8-31.7L7.8-18 22.35-18 24.85-20.45 24.85-29.25 22.35-31.7 7.8-31.7ZM40.4 0L35.8-4.6 35.8-20.3 40.4-24.9 53.2-24.9 57.8-20.3 57.8-4.6 53.2 0 40.4 0ZM42-3.3L51.6-3.3 54.1-5.75 54.1-19.15 51.6-21.6 42-21.6 39.5-19.15 39.5-5.75 42-3.3ZM68.9 0L64.3-4.6 64.3-20.3 68.9-24.9 81.7-24.9 86.3-20.3 86.3-4.6 81.7 0 68.9 0ZM70.5-3.3L80.1-3.3 82.6-5.75 82.6-19.15 80.1-21.6 70.5-21.6 68-19.15 68-5.75 70.5-3.3ZM93.29 0L93.29-24.9 96.89-24.9 96.89-20.1 101.69-24.9 107.64-24.9 111.54-21 115.44-24.9 123.29-24.9 127.89-20.3 127.89 0 124.19 0 124.19-19.15 121.69-21.6 116.19-21.6 112.69-18.1 112.69 0 109.09 0 109.09-19.15 106.59-21.6 102.39-21.6 96.99-16.2 96.99 0 93.29 0ZM136.39-29.1L134.89-30.6 134.89-32.8 136.39-34.3 138.59-34.3 140.09-32.8 140.09-30.6 138.59-29.1 136.39-29.1ZM135.64 0L135.64-24.9 139.34-24.9 139.34 0 135.64 0ZM151.44 0L146.84-4.6 146.84-20.3 151.44-24.9 164.24-24.9 168.84-20.3 168.84-4.6 164.24 0 151.44 0ZM153.04-3.3L162.64-3.3 165.14-5.75 165.14-19.15 162.64-21.6 153.04-21.6 150.54-19.15 150.54-5.75 153.04-3.3Z" opacity="1" transform="matrix(1,0,0,1,0,0)" fill="white" class="wordmark-text-0" id="SvgjsPath1068"></path></svg></g></svg></g></svg></g></svg></g><g><svg viewBox="0 0 115.25794352654994 138.5025385987261" height="138.5025385987261" width="115.25794352654994"><g><svg xmlns="http://www.w3.org/2000/svg" xmlns:xlink="http://www.w3.org/1999/xlink" version="1.1" x="0" y="0" viewBox="13.05 5.598000000000005 73.9 88.80375" enable-background="new 0 0 100 100" xml:space="preserve" height="138.5025385987261" width="115.25794352654994" class="icon-icon-0" data-fill-palette-color="accent" id="SvgjsSvg1067"><path fill-rule="evenodd" clip-rule="evenodd" d="M72.839 13.551c1.104 0.868 2.158 1.83 3.168 2.886 7.296 7.25 10.943 15.988 10.943 26.217 0 10.182-3.647 18.874-10.943 26.077-0.117 0.164-0.234 0.387-0.352 0.668-0.283 0.165-0.541 0.399-0.775 0.704L53.978 92.097c-2.698 3.073-5.361 3.073-7.988 0L24.347 69.223c-0.117-0.164-0.234-0.328-0.352-0.492C16.698 61.528 13.05 52.836 13.05 42.654c0-10.229 3.648-18.967 10.945-26.217 1.008-1.056 2.088-2.018 3.236-2.886 6.453-5.302 14.065-7.953 22.84-7.953C58.751 5.598 66.341 8.249 72.839 13.551zM82.06 42.548c0-8.798-3.145-16.34-9.432-22.627S58.774 10.49 49.931 10.49c-8.799 0-16.341 3.144-22.628 9.431-6.288 6.287-9.431 13.83-9.431 22.627s3.143 16.34 9.431 22.627c6.287 6.288 13.829 9.431 22.628 9.431 8.844 0 16.41-3.144 22.697-9.431C78.915 58.889 82.06 51.346 82.06 42.548zM67.666 31.604c0.399 0.094 0.774 0.176 1.126 0.247 3.05 0.962 4.493 3.343 4.328 7.144L72.944 57.68h-4.152v-6.229h-37.76v6.229H26.88V27.346h4.152v19.179h16.61V31.604H67.666zM33.778 38.22c0-1.36 0.48-2.557 1.442-3.589 1.009-0.938 2.193-1.408 3.554-1.408 1.314 0 2.451 0.47 3.414 1.408 1.055 1.032 1.583 2.229 1.583 3.589 0 1.361-0.528 2.522-1.583 3.484-0.963 1.008-2.1 1.513-3.414 1.513-1.36 0-2.545-0.505-3.554-1.513C34.259 40.742 33.778 39.581 33.778 38.22z" fill="black"></path></svg></g></svg></g></svg></g><defs><mask></mask></defs></svg><rect width="395.52" height="103.24215092878964" fill="black" stroke="none" visibility="hidden"></rect></g></mask><linearGradient x1="0" x2="1" y1="0.578" y2="0.595" id="4c05dc27-fdd8-4746-971b-c03ec357a6a6"><stop stop-color="#6ee2f5" offset="0"></stop><stop stop-color="#6454f0" offset="1"></stop></linearGradient><rect width="395.52" height="103.24215092878964" fill="url(#4c05dc27-fdd8-4746-971b-c03ec357a6a6)" mask="url(#a0c390bd-36b0-41a6-b3b7-e71065a5d666)" data-fill-palette-color="primary"></rect><mask id="03936837-9753-4237-8cc1-7bd5ce0f56c5"><g id="SvgjsG1090"><svg viewBox="0 0 395.52 103.24215092878964" height="103.24215092878964" width="395.52"><g><svg viewBox="0 0 530.6023128513907 138.5025385987261" height="103.24215092878964" width="395.52"><g transform="matrix(1,0,0,1,135.0823128513907,27.26400815286624)"><svg viewBox="0 0 395.52 83.97452229299361" height="83.97452229299361" width="395.52"><g id="SvgjsG1089"><svg viewBox="0 0 395.52 83.97452229299361" height="83.97452229299361" width="395.52" id="SvgjsSvg1088"><g><svg viewBox="0 0 395.52 83.97452229299361" height="83.97452229299361" width="395.52"><g transform="matrix(1,0,0,1,0,0)"><svg width="395.52" viewBox="4 -35 164.84 35" height="83.97452229299361" data-palette-color="url(#4c05dc27-fdd8-4746-971b-c03ec357a6a6)"></svg></g></svg></g></svg></g></svg></g><g><svg viewBox="0 0 115.25794352654994 138.5025385987261" height="138.5025385987261" width="115.25794352654994"><g><svg xmlns="http://www.w3.org/2000/svg" xmlns:xlink="http://www.w3.org/1999/xlink" version="1.1" x="0" y="0" viewBox="13.05 5.598000000000005 73.9 88.80375" enable-background="new 0 0 100 100" xml:space="preserve" height="138.5025385987261" width="115.25794352654994" class="icon-icon-0" data-fill-palette-color="accent" id="SvgjsSvg1087"><path fill-rule="evenodd" clip-rule="evenodd" d="M72.839 13.551c1.104 0.868 2.158 1.83 3.168 2.886 7.296 7.25 10.943 15.988 10.943 26.217 0 10.182-3.647 18.874-10.943 26.077-0.117 0.164-0.234 0.387-0.352 0.668-0.283 0.165-0.541 0.399-0.775 0.704L53.978 92.097c-2.698 3.073-5.361 3.073-7.988 0L24.347 69.223c-0.117-0.164-0.234-0.328-0.352-0.492C16.698 61.528 13.05 52.836 13.05 42.654c0-10.229 3.648-18.967 10.945-26.217 1.008-1.056 2.088-2.018 3.236-2.886 6.453-5.302 14.065-7.953 22.84-7.953C58.751 5.598 66.341 8.249 72.839 13.551zM82.06 42.548c0-8.798-3.145-16.34-9.432-22.627S58.774 10.49 49.931 10.49c-8.799 0-16.341 3.144-22.628 9.431-6.288 6.287-9.431 13.83-9.431 22.627s3.143 16.34 9.431 22.627c6.287 6.288 13.829 9.431 22.628 9.431 8.844 0 16.41-3.144 22.697-9.431C78.915 58.889 82.06 51.346 82.06 42.548zM67.666 31.604c0.399 0.094 0.774 0.176 1.126 0.247 3.05 0.962 4.493 3.343 4.328 7.144L72.944 57.68h-4.152v-6.229h-37.76v6.229H26.88V27.346h4.152v19.179h16.61V31.604H67.666zM33.778 38.22c0-1.36 0.48-2.557 1.442-3.589 1.009-0.938 2.193-1.408 3.554-1.408 1.314 0 2.451 0.47 3.414 1.408 1.055 1.032 1.583 2.229 1.583 3.589 0 1.361-0.528 2.522-1.583 3.484-0.963 1.008-2.1 1.513-3.414 1.513-1.36 0-2.545-0.505-3.554-1.513C34.259 40.742 33.778 39.581 33.778 38.22z" fill="white"></path></svg></g></svg></g></svg></g><defs><mask></mask></defs><mask><g id="SvgjsG1086"><svg viewBox="0 0 395.52 103.24215092878964" height="103.24215092878964" width="395.52"><g><svg viewBox="0 0 530.6023128513907 138.5025385987261" height="103.24215092878964" width="395.52"><g transform="matrix(1,0,0,1,135.0823128513907,27.26400815286624)"><svg viewBox="0 0 395.52 83.97452229299361" height="83.97452229299361" width="395.52"><g id="SvgjsG1085"><svg viewBox="0 0 395.52 83.97452229299361" height="83.97452229299361" width="395.52" id="SvgjsSvg1084"><g><svg viewBox="0 0 395.52 83.97452229299361" height="83.97452229299361" width="395.52"><g transform="matrix(1,0,0,1,0,0)"><svg width="395.52" viewBox="4 -35 164.84 35" height="83.97452229299361" data-palette-color="url(#4c05dc27-fdd8-4746-971b-c03ec357a6a6)"><path d="M24.55-15.3L28.8-10.7 28.8 0 25 0 25-9.65 20.2-14.7 7.8-14.7 7.8 0 4 0 4-35 24-35 28.6-30.4 28.6-19.35 24.55-15.3ZM7.8-31.7L7.8-18 22.35-18 24.85-20.45 24.85-29.25 22.35-31.7 7.8-31.7ZM40.4 0L35.8-4.6 35.8-20.3 40.4-24.9 53.2-24.9 57.8-20.3 57.8-4.6 53.2 0 40.4 0ZM42-3.3L51.6-3.3 54.1-5.75 54.1-19.15 51.6-21.6 42-21.6 39.5-19.15 39.5-5.75 42-3.3ZM68.9 0L64.3-4.6 64.3-20.3 68.9-24.9 81.7-24.9 86.3-20.3 86.3-4.6 81.7 0 68.9 0ZM70.5-3.3L80.1-3.3 82.6-5.75 82.6-19.15 80.1-21.6 70.5-21.6 68-19.15 68-5.75 70.5-3.3ZM93.29 0L93.29-24.9 96.89-24.9 96.89-20.1 101.69-24.9 107.64-24.9 111.54-21 115.44-24.9 123.29-24.9 127.89-20.3 127.89 0 124.19 0 124.19-19.15 121.69-21.6 116.19-21.6 112.69-18.1 112.69 0 109.09 0 109.09-19.15 106.59-21.6 102.39-21.6 96.99-16.2 96.99 0 93.29 0ZM136.39-29.1L134.89-30.6 134.89-32.8 136.39-34.3 138.59-34.3 140.09-32.8 140.09-30.6 138.59-29.1 136.39-29.1ZM135.64 0L135.64-24.9 139.34-24.9 139.34 0 135.64 0ZM151.44 0L146.84-4.6 146.84-20.3 151.44-24.9 164.24-24.9 168.84-20.3 168.84-4.6 164.24 0 151.44 0ZM153.04-3.3L162.64-3.3 165.14-5.75 165.14-19.15 162.64-21.6 153.04-21.6 150.54-19.15 150.54-5.75 153.04-3.3Z" opacity="1" transform="matrix(1,0,0,1,0,0)" fill="black" class="wordmark-text-0" id="SvgjsPath1083"></path></svg></g></svg></g></svg></g></svg></g><g><svg viewBox="0 0 115.25794352654994 138.5025385987261" height="138.5025385987261" width="115.25794352654994"><g><svg xmlns="http://www.w3.org/2000/svg" xmlns:xlink="http://www.w3.org/1999/xlink" version="1.1" x="0" y="0" viewBox="13.05 5.598000000000005 73.9 88.80375" enable-background="new 0 0 100 100" xml:space="preserve" height="138.5025385987261" width="115.25794352654994" class="icon-icon-0" data-fill-palette-color="accent" id="SvgjsSvg1082"><path fill-rule="evenodd" clip-rule="evenodd" d="M72.839 13.551c1.104 0.868 2.158 1.83 3.168 2.886 7.296 7.25 10.943 15.988 10.943 26.217 0 10.182-3.647 18.874-10.943 26.077-0.117 0.164-0.234 0.387-0.352 0.668-0.283 0.165-0.541 0.399-0.775 0.704L53.978 92.097c-2.698 3.073-5.361 3.073-7.988 0L24.347 69.223c-0.117-0.164-0.234-0.328-0.352-0.492C16.698 61.528 13.05 52.836 13.05 42.654c0-10.229 3.648-18.967 10.945-26.217 1.008-1.056 2.088-2.018 3.236-2.886 6.453-5.302 14.065-7.953 22.84-7.953C58.751 5.598 66.341 8.249 72.839 13.551zM82.06 42.548c0-8.798-3.145-16.34-9.432-22.627S58.774 10.49 49.931 10.49c-8.799 0-16.341 3.144-22.628 9.431-6.288 6.287-9.431 13.83-9.431 22.627s3.143 16.34 9.431 22.627c6.287 6.288 13.829 9.431 22.628 9.431 8.844 0 16.41-3.144 22.697-9.431C78.915 58.889 82.06 51.346 82.06 42.548zM67.666 31.604c0.399 0.094 0.774 0.176 1.126 0.247 3.05 0.962 4.493 3.343 4.328 7.144L72.944 57.68h-4.152v-6.229h-37.76v6.229H26.88V27.346h4.152v19.179h16.61V31.604H67.666zM33.778 38.22c0-1.36 0.48-2.557 1.442-3.589 1.009-0.938 2.193-1.408 3.554-1.408 1.314 0 2.451 0.47 3.414 1.408 1.055 1.032 1.583 2.229 1.583 3.589 0 1.361-0.528 2.522-1.583 3.484-0.963 1.008-2.1 1.513-3.414 1.513-1.36 0-2.545-0.505-3.554-1.513C34.259 40.742 33.778 39.581 33.778 38.22z" fill="black"></path></svg></g></svg></g></svg></g><defs><mask></mask></defs></svg><rect width="395.52" height="103.24215092878964" fill="black" stroke="none" visibility="hidden"></rect></g></mask></svg><rect width="395.52" height="103.24215092878964" fill="black" stroke="none" visibility="hidden"></rect></g></mask><linearGradient x1="0" x2="1" y1="0.578" y2="0.595" id="d5f7d5c6-fe1c-46f3-a20c-6571e3d1d4b7"><stop stop-color="#6ee2f5" offset="0"></stop><stop stop-color="#6454f0" offset="1"></stop></linearGradient><rect width="395.52" height="103.24215092878964" fill="url(#d5f7d5c6-fe1c-46f3-a20c-6571e3d1d4b7)" mask="url(#03936837-9753-4237-8cc1-7bd5ce0f56c5)" data-fill-palette-color="accent"></rect></svg><rect width="395.52" height="103.24215092878964" fill="none" stroke="none" visibility="hidden"></rect></g></svg></g></svg>