<svg xmlns="http://www.w3.org/2000/svg"  viewBox="0 0 48 48" width="48px" height="48px" baseProfile="basic"><path d="M39,44H9c-1.657,0-3-1.343-3-3v-7h36v7C42,42.657,40.657,44,39,44z"/><path fill="#fff" d="M39,41H9c-1.105,0-2-0.895-2-2V7h34v32C41,40.105,40.105,41,39,41z"/><path d="M39,42H9c-1.654,0-3-1.346-3-3V7c0-0.552,0.447-1,1-1h34c0.553,0,1,0.448,1,1v32C42,40.654,40.654,42,39,42z M8,8v31	c0,0.551,0.448,1,1,1h30c0.552,0,1-0.449,1-1V8H8z"/><path d="M34.257,34h-6.437L13.829,14h6.437L34.257,34z M28.587,32.304h2.563L19.499,15.696h-2.563L28.587,32.304z"/><polygon points="15.866,34 23.069,25.656 22.127,24.407 13.823,34"/><polygon points="24.45,21.721 25.355,23.01 33.136,14 31.136,14"/></svg>